<svg width="36" height="36" viewBox="0 0 36 36" fill="none" xmlns="http://www.w3.org/2000/svg">
<path d="M7.14846 28.125H32.625V1.125H7.07815C5.94795 1.12863 4.86507 1.57922 4.06589 2.37839C3.26672 3.17757 2.81613 4.26045 2.8125 5.39065V30.252H2.81327C2.81327 30.2626 2.8125 30.273 2.8125 30.2838C2.8125 32.7729 4.76592 34.8752 7.07815 34.8752H32.625V32.625H7.07815C6.02325 32.625 5.0625 31.5091 5.0625 30.2836C5.0625 29.1136 6.0177 28.125 7.14846 28.125ZM25.3125 3.39841V15.5495L21.9094 12.562L18.5625 15.532V3.39841H25.3125ZM16.3125 3.375V18.5625H18.5373L21.9175 15.563L25.3339 18.5625H27.5625V3.375H30.375V25.875H9.56813L9.5625 3.375H16.3125ZM7.07815 3.375H7.3125L7.31784 25.875H7.14818C6.41657 25.8751 5.69766 26.0662 5.0625 26.4293V5.40823C5.06078 4.8715 5.27203 4.356 5.6499 3.97483C6.02778 3.59366 6.54142 3.37794 7.07815 3.375Z" fill="#848484"/>
</svg>
