<svg width="36" height="36" viewBox="0 0 36 36" fill="none" xmlns="http://www.w3.org/2000/svg">
<path d="M15.1897 6.09075C14.674 8.29263 14.6038 10.5754 14.9834 12.8048C15.363 15.0342 16.1846 17.1651 17.3999 19.0723C18.6152 20.9794 20.1997 22.6243 22.0601 23.91C23.9205 25.1957 26.0193 26.0964 28.2329 26.559C27.0691 27.7632 25.6753 28.7213 24.134 29.3764C22.5928 30.0315 20.9357 30.3704 19.2611 30.3727C19.1058 30.3727 18.9483 30.3784 18.7908 30.3727C15.8752 30.27 13.0878 29.1492 10.9127 27.205C8.73756 25.2607 7.31228 22.6159 6.88443 19.7301C6.45658 16.8443 7.0532 13.8997 8.57065 11.408C10.0881 8.91635 12.4305 7.03497 15.1908 6.09075M16.8524 3.375C16.7864 3.37522 16.7205 3.38125 16.6556 3.393C13.0743 4.03034 9.85534 5.97002 7.61855 8.8386C5.38176 11.7072 4.28525 15.3018 4.54014 18.9305C4.79503 22.5591 6.38329 25.9651 8.99914 28.4929C11.615 31.0206 15.0735 32.4912 18.7087 32.6216C18.8932 32.6284 19.0777 32.6216 19.2599 32.6216C21.6212 32.6232 23.9482 32.0561 26.044 30.9683C28.1399 29.8805 29.943 28.3041 31.3008 26.3722C31.4108 26.2057 31.475 26.0132 31.487 25.814C31.499 25.6148 31.4583 25.416 31.369 25.2375C31.2797 25.059 31.1449 24.9072 30.9783 24.7973C30.8118 24.6875 30.6192 24.6234 30.4199 24.6116C28.1725 24.4144 26.0005 23.703 24.0718 22.5325C22.1431 21.3619 20.5094 19.7636 19.297 17.8609C18.0845 15.9583 17.3258 13.8024 17.0794 11.5598C16.8331 9.31718 17.1057 7.04795 17.8762 4.9275C17.9417 4.75777 17.9658 4.57484 17.9463 4.39394C17.9268 4.21304 17.8644 4.03941 17.7643 3.88751C17.6641 3.73562 17.5291 3.60986 17.3705 3.52071C17.2119 3.43156 17.0343 3.3816 16.8524 3.375Z" fill="#848484"/>
</svg>
