<svg width="36" height="36" viewBox="0 0 36 36" fill="none" xmlns="http://www.w3.org/2000/svg">
<g clip-path="url(#clip0_252_15)">
<path d="M9 6V30C8.99992 30.2669 9.07106 30.529 9.20607 30.7592C9.34108 30.9894 9.53508 31.1795 9.76804 31.3097C10.001 31.4399 10.2645 31.5057 10.5313 31.5001C10.7982 31.4945 11.0587 31.4178 11.286 31.278L30.786 19.278C31.0044 19.1438 31.1848 18.9559 31.3099 18.7321C31.435 18.5084 31.5007 18.2563 31.5007 18C31.5007 17.7437 31.435 17.4916 31.3099 17.2679C31.1848 17.0441 31.0044 16.8562 30.786 16.722L11.286 4.722C11.0587 4.58214 10.7982 4.50547 10.5313 4.4999C10.2645 4.49433 10.001 4.56005 9.76804 4.69029C9.53508 4.82052 9.34108 5.01056 9.20607 5.24079C9.07106 5.47102 8.99992 5.7331 9 6Z" fill="#A844F2"/>
</g>
<defs>
<clipPath id="clip0_252_15">
<rect width="36" height="36" fill="white"/>
</clipPath>
</defs>
</svg>
