<svg width="36" height="36" viewBox="0 0 36 36" fill="none" xmlns="http://www.w3.org/2000/svg">
<path d="M16.875 5.625V2.25C16.875 1.95163 16.9935 1.66548 17.2045 1.4545C17.4155 1.24353 17.7016 1.125 18 1.125C18.2984 1.125 18.5845 1.24353 18.7955 1.4545C19.0065 1.66548 19.125 1.95163 19.125 2.25V5.625C19.125 5.92337 19.0065 6.20952 18.7955 6.42049C18.5845 6.63147 18.2984 6.75 18 6.75C17.7016 6.75 17.4155 6.63147 17.2045 6.42049C16.9935 6.20952 16.875 5.92337 16.875 5.625ZM27 18C27 19.78 26.4722 21.5201 25.4832 23.0001C24.4943 24.4802 23.0887 25.6337 21.4442 26.3149C19.7996 26.9961 17.99 27.1743 16.2442 26.8271C14.4984 26.4798 12.8947 25.6226 11.636 24.364C10.3774 23.1053 9.5202 21.5016 9.17293 19.7558C8.82567 18.01 9.0039 16.2004 9.68508 14.5558C10.3663 12.9113 11.5198 11.5057 12.9999 10.5168C14.4799 9.52784 16.22 9 18 9C20.3861 9.00261 22.6738 9.95165 24.3611 11.6389C26.0483 13.3262 26.9974 15.6139 27 18ZM24.75 18C24.75 16.665 24.3541 15.3599 23.6124 14.2499C22.8707 13.1399 21.8165 12.2747 20.5831 11.7638C19.3497 11.2529 17.9925 11.1192 16.6831 11.3797C15.3738 11.6402 14.171 12.283 13.227 13.227C12.283 14.171 11.6402 15.3738 11.3797 16.6831C11.1192 17.9925 11.2529 19.3497 11.7638 20.5831C12.2747 21.8165 13.1399 22.8707 14.2499 23.6124C15.3599 24.3541 16.665 24.75 18 24.75C19.7896 24.7481 21.5054 24.0364 22.7709 22.7709C24.0364 21.5054 24.7481 19.7896 24.75 18ZM8.20406 9.79594C8.41516 10.007 8.70147 10.1256 9 10.1256C9.29853 10.1256 9.58484 10.007 9.79594 9.79594C10.007 9.58484 10.1256 9.29853 10.1256 9C10.1256 8.70147 10.007 8.41516 9.79594 8.20406L7.54594 5.95406C7.33484 5.74297 7.04853 5.62437 6.75 5.62437C6.45147 5.62437 6.16516 5.74297 5.95406 5.95406C5.74297 6.16516 5.62437 6.45147 5.62437 6.75C5.62437 7.04853 5.74297 7.33484 5.95406 7.54594L8.20406 9.79594ZM8.20406 26.2041L5.95406 28.4541C5.74297 28.6652 5.62437 28.9515 5.62437 29.25C5.62437 29.5485 5.74297 29.8348 5.95406 30.0459C6.16516 30.257 6.45147 30.3756 6.75 30.3756C7.04853 30.3756 7.33484 30.257 7.54594 30.0459L9.79594 27.7959C9.90046 27.6914 9.98337 27.5673 10.0399 27.4308C10.0965 27.2942 10.1256 27.1478 10.1256 27C10.1256 26.8522 10.0965 26.7058 10.0399 26.5692C9.98337 26.4327 9.90046 26.3086 9.79594 26.2041C9.69141 26.0995 9.56733 26.0166 9.43076 25.9601C9.29419 25.9035 9.14782 25.8744 9 25.8744C8.85218 25.8744 8.70581 25.9035 8.56924 25.9601C8.43267 26.0166 8.30859 26.0995 8.20406 26.2041ZM27 10.125C27.1478 10.1251 27.2941 10.0961 27.4307 10.0397C27.5673 9.98319 27.6914 9.90038 27.7959 9.79594L30.0459 7.54594C30.257 7.33484 30.3756 7.04853 30.3756 6.75C30.3756 6.45147 30.257 6.16516 30.0459 5.95406C29.8348 5.74297 29.5485 5.62437 29.25 5.62437C28.9515 5.62437 28.6652 5.74297 28.4541 5.95406L26.2041 8.20406C26.0465 8.3614 25.9393 8.56193 25.8958 8.78028C25.8523 8.99863 25.8746 9.22496 25.9598 9.43064C26.045 9.63632 26.1894 9.81208 26.3745 9.93569C26.5597 10.0593 26.7774 10.1252 27 10.125ZM27.7959 26.2041C27.5848 25.993 27.2985 25.8744 27 25.8744C26.7015 25.8744 26.4152 25.993 26.2041 26.2041C25.993 26.4152 25.8744 26.7015 25.8744 27C25.8744 27.2985 25.993 27.5848 26.2041 27.7959L28.4541 30.0459C28.5586 30.1505 28.6827 30.2334 28.8192 30.2899C28.9558 30.3465 29.1022 30.3756 29.25 30.3756C29.3978 30.3756 29.5442 30.3465 29.6808 30.2899C29.8173 30.2334 29.9414 30.1505 30.0459 30.0459C30.1505 29.9414 30.2334 29.8173 30.2899 29.6808C30.3465 29.5442 30.3756 29.3978 30.3756 29.25C30.3756 29.1022 30.3465 28.9558 30.2899 28.8192C30.2334 28.6827 30.1505 28.5586 30.0459 28.4541L27.7959 26.2041ZM6.75 18C6.75 17.7016 6.63147 17.4155 6.42049 17.2045C6.20952 16.9935 5.92337 16.875 5.625 16.875H2.25C1.95163 16.875 1.66548 16.9935 1.4545 17.2045C1.24353 17.4155 1.125 17.7016 1.125 18C1.125 18.2984 1.24353 18.5845 1.4545 18.7955C1.66548 19.0065 1.95163 19.125 2.25 19.125H5.625C5.92337 19.125 6.20952 19.0065 6.42049 18.7955C6.63147 18.5845 6.75 18.2984 6.75 18ZM18 29.25C17.7016 29.25 17.4155 29.3685 17.2045 29.5795C16.9935 29.7905 16.875 30.0766 16.875 30.375V33.75C16.875 34.0484 16.9935 34.3345 17.2045 34.5455C17.4155 34.7565 17.7016 34.875 18 34.875C18.2984 34.875 18.5845 34.7565 18.7955 34.5455C19.0065 34.3345 19.125 34.0484 19.125 33.75V30.375C19.125 30.0766 19.0065 29.7905 18.7955 29.5795C18.5845 29.3685 18.2984 29.25 18 29.25ZM33.75 16.875H30.375C30.0766 16.875 29.7905 16.9935 29.5795 17.2045C29.3685 17.4155 29.25 17.7016 29.25 18C29.25 18.2984 29.3685 18.5845 29.5795 18.7955C29.7905 19.0065 30.0766 19.125 30.375 19.125H33.75C34.0484 19.125 34.3345 19.0065 34.5455 18.7955C34.7565 18.5845 34.875 18.2984 34.875 18C34.875 17.7016 34.7565 17.4155 34.5455 17.2045C34.3345 16.9935 34.0484 16.875 33.75 16.875Z" fill="white"/>
</svg>
